# xmcd CD database file
#
# Track frame offsets:
#	150
#	21190
#	38545
#	61190
#	83380
#	105225
#	126712
#	148437
#	171145
#	193442
#	214170
#	235220
#	256915
#
# Disc length: 3689 seconds
#
# Revision: 0
# Processed by: cddbd v1.5.1PL2 Copyright (c) Steve Scherf et al.
# Submitted via: CDex 1.51
#
DISCID=b60e670d
DTITLE=北島ファミリー - 爆走デコトラ伝説〜男花道夢浪漫〜
DYEAR=2003
DGENRE=Game
TTITLE0=人生航路
TTITLE1=みちのくひとり旅
TTITLE2=そして…春
TTITLE3=潮騒の詩
TTITLE4=春の嵐
TTITLE5=女ド根性
TTITLE6=夢の街道男道
TTITLE7=耳を澄ませば
TTITLE8=親父のララバイ
TTITLE9=父さん
TTITLE10=希望船
TTITLE11=紫
TTITLE12=まつり
EXTD=YEAR: 2003
EXTT0=
EXTT1=
EXTT2=
EXTT3=
EXTT4=
EXTT5=
EXTT6=
EXTT7=
EXTT8=
EXTT9=
EXTT10=
EXTT11=
EXTT12=
PLAYORDER=
